<?xml version="1.0" standalone="no"?>
<!DOCTYPE svg PUBLIC "-//W3C//DTD SVG 20010904//EN"
 "http://www.w3.org/TR/2001/REC-SVG-20010904/DTD/svg10.dtd">
<svg version="1.0" xmlns="http://www.w3.org/2000/svg"
 width="512.000000pt" height="512.000000pt" viewBox="0 0 512.000000 512.000000"
 preserveAspectRatio="xMidYMid meet">
<metadata>
Created by potrace 1.16, written by Peter Selinger 2001-2019
</metadata>
<g transform="translate(0.000000,512.000000) scale(0.100000,-0.100000)"
fill="#FFFFFF" stroke="none">
<path d="M286 5110 c-70 -21 -145 -98 -166 -171 -14 -47 -13 -893 0 -941 16
-57 69 -119 129 -150 53 -28 54 -28 248 -28 l195 0 -7 -47 c-4 -26 -17 -74
-29 -108 -23 -59 -24 -60 -67 -65 -81 -11 -109 -38 -109 -110 0 -33 6 -48 29
-71 l29 -29 466 0 466 0 32 29 c28 25 33 36 33 75 0 63 -33 95 -105 104 l-53
7 -23 60 c-12 34 -25 82 -29 108 l-7 47 209 0 c205 0 210 1 261 26 57 28 96
69 123 129 15 33 19 66 19 188 l0 147 231 0 c146 0 238 -4 251 -11 47 -25 48
-38 48 -682 l0 -604 -47 -18 c-64 -24 -163 -124 -188 -187 l-17 -47 -527 -3
-526 -3 -53 -29 c-62 -35 -107 -87 -133 -156 -17 -46 -19 -82 -19 -445 l0
-395 -278 0 c-315 0 -350 -5 -421 -67 -24 -20 -54 -60 -67 -87 l-24 -51 0
-462 0 -463 -51 0 c-43 0 -55 -5 -80 -29 l-29 -29 0 -144 c0 -106 4 -157 16
-191 20 -60 93 -141 158 -175 l51 -27 775 -3 c901 -3 844 -8 946 92 78 78 94
123 101 277 8 177 -19 229 -118 229 l-49 0 0 463 0 462 -24 50 c-12 28 -41 67
-64 87 -67 60 -110 68 -389 68 l-243 0 0 376 c0 383 2 402 39 431 12 9 138 12
512 13 l496 0 24 -52 c32 -69 103 -139 172 -169 l57 -24 0 -556 c0 -622 -1
-611 71 -693 22 -25 65 -57 97 -73 l57 -28 278 -4 277 -3 0 -174 0 -174 -49 0
c-99 0 -126 -52 -118 -229 7 -163 39 -238 131 -308 86 -66 59 -64 916 -61
l775 3 51 27 c65 34 138 115 158 175 12 34 16 85 16 191 l0 144 -29 29 c-25
24 -37 29 -80 29 l-51 0 0 463 0 462 -24 51 c-13 28 -43 67 -67 87 -63 54
-125 69 -265 65 l-116 -3 -30 -34 c-27 -30 -30 -39 -25 -80 4 -33 12 -52 32
-68 24 -21 36 -23 133 -23 81 0 113 -4 130 -16 l22 -15 0 -429 0 -429 -22 -15
c-20 -14 -96 -16 -628 -16 -532 0 -608 2 -628 16 l-22 15 0 429 0 429 22 15
c16 12 47 16 116 16 62 0 102 5 121 15 57 29 65 119 15 166 -23 22 -36 24
-134 27 -133 4 -197 -11 -259 -65 -24 -20 -54 -59 -67 -87 -22 -48 -24 -63
-24 -233 l0 -183 -240 0 c-256 0 -297 6 -319 48 -8 14 -11 193 -11 559 l0 538
52 25 c66 31 136 102 167 168 l24 51 537 3 537 3 69 35 c80 41 136 110 153
191 6 29 11 169 11 329 l0 280 181 0 181 0 29 29 c23 23 29 38 29 71 0 72 -28
99 -109 110 -43 5 -44 6 -67 65 -12 34 -25 82 -29 108 l-7 47 195 0 c194 0
195 0 248 28 60 31 113 93 129 150 6 23 10 204 10 473 0 474 -1 482 -56 555
-15 19 -48 47 -73 62 l-46 27 -713 3 c-476 2 -726 -1 -752 -8 -59 -16 -120
-68 -152 -129 l-28 -53 0 -457 c0 -420 2 -459 19 -496 27 -60 66 -101 123
-129 51 -25 56 -26 261 -26 l209 0 -7 -47 c-4 -26 -17 -74 -29 -108 l-23 -60
-53 -7 c-72 -9 -105 -41 -105 -104 0 -39 5 -50 33 -75 l32 -29 180 0 180 0 0
-280 0 -280 -29 -32 -29 -33 -519 -3 -518 -2 -19 45 c-26 64 -106 149 -171
180 l-54 27 -3 641 -3 642 -28 57 c-16 32 -48 75 -73 97 -75 66 -103 71 -386
71 l-248 0 0 204 c0 204 0 204 -28 257 -31 60 -93 113 -150 129 -46 12 -1423
12 -1466 0z m1418 -216 c14 -13 16 -66 16 -420 0 -260 -4 -412 -10 -425 -10
-18 -29 -19 -685 -19 -599 0 -675 2 -689 16 -14 13 -16 66 -16 424 0 358 2
411 16 424 14 14 90 16 684 16 594 0 670 -2 684 -16z m3080 0 c14 -13 16 -66
16 -424 0 -358 -2 -411 -16 -424 -14 -14 -90 -16 -689 -16 -656 0 -675 1 -685
19 -6 13 -10 165 -10 425 0 354 2 407 16 420 14 14 90 16 684 16 594 0 670 -2
684 -16z m-3674 -1101 c0 -30 24 -146 35 -175 7 -17 -4 -18 -140 -18 -136 0
-147 1 -140 18 11 29 35 145 35 175 l0 27 105 0 105 0 0 -27z m3110 0 c0 -30
24 -146 35 -175 7 -17 -4 -18 -140 -18 -136 0 -147 1 -140 18 11 29 35 145 35
175 l0 27 105 0 105 0 0 -27z m-1595 -996 c130 -64 114 -247 -26 -288 -113
-34 -227 86 -185 196 36 92 129 133 211 92z m-977 -1293 l22 -15 0 -429 0
-429 -22 -15 c-20 -14 -96 -16 -628 -16 -532 0 -608 2 -628 16 l-22 15 0 429
0 429 22 15 c20 14 96 16 628 16 532 0 608 -2 628 -16z m192 -1141 c0 -51 -20
-102 -51 -127 l-31 -26 -739 0 -739 0 -30 28 c-30 26 -49 77 -50 130 l0 22
820 0 820 0 0 -27z m3080 5 c-1 -53 -20 -104 -50 -130 l-30 -28 -739 0 -739 0
-31 26 c-31 25 -51 76 -51 127 l0 27 820 0 820 0 0 -22z"/>
<path d="M4050 1712 c-42 -20 -62 -69 -49 -117 32 -113 199 -93 199 25 0 54
-14 79 -55 96 -44 18 -53 18 -95 -4z"/>
</g>
</svg>
